<?xml version="1.0" encoding="iso-8859-1"?>
<!-- Generator: Adobe Illustrator 19.0.0, SVG Export Plug-In . SVG Version: 6.00 Build 0)  -->
<svg version="1.1" id="Capa_1" xmlns="http://www.w3.org/2000/svg" xmlns:xlink="http://www.w3.org/1999/xlink" x="0px" y="0px"
	 viewBox="0 0 512 512" style="enable-background:new 0 0 512 512;" xml:space="preserve">
<rect x="183.33" y="338.29" style="fill:#FF4F19;" width="328.67" height="66.27"/>
<rect x="439.33" y="338.29" style="fill:#DE001F;" width="72.67" height="66.27"/>
<rect x="183.33" y="223.09" style="fill:#FFAB2D;" width="328.67" height="66.27"/>
<rect x="384" y="223.09" style="fill:#FF8800;" width="128" height="66.27"/>
<rect x="183.33" y="107.89" style="fill:#FFCE2D;" width="328.67" height="66.27"/>
<rect x="416" y="107.89" style="fill:#FFAB2D;" width="96" height="66.27"/>
<path style="fill:#265D77;" d="M191.777,268.114C86.031,268.114,0,354.145,0,459.891v15h383.555v-15
	C383.555,354.145,297.523,268.114,191.777,268.114z"/>
<path style="fill:#132F3B;" d="M191.778,268.114v206.777h191.777v-15C383.555,354.145,297.523,268.114,191.778,268.114z"/>
<path style="fill:#388CB2;" d="M181.111,268.428c-29.54,1.63-57.321,9.962-81.835,23.518l39.169,182.945h42.667V268.428H181.111z"/>
<path style="fill:#265D77;" d="M202.444,268.428c29.54,1.63,57.321,9.962,81.836,23.518l-39.169,182.945h-42.667V268.428z"/>
<polygon style="fill:#FFCE2D;" points="196.778,474.891 196.778,277.119 133.655,277.118 170.444,341.756 149.111,474.891 "/>
<polygon style="fill:#FFAB2D;" points="249.896,277.119 191.778,258.575 191.778,474.891 234.444,474.891 213.111,341.755 "/>
<path style="fill:#FFE3BA;" d="M191.777,37.109c-70.056,0-127.051,56.995-127.051,127.051s56.995,127.051,127.051,127.051
	c70.057,0,127.052-56.995,127.052-127.051C318.829,94.104,261.834,37.109,191.777,37.109z"/>
<path style="fill:#FFCD81;" d="M191.777,291.211c70.057,0,127.052-56.995,127.052-127.051S261.834,37.109,191.777,37.109"/>
<path style="fill:#FFFFFF;" d="M191.777,226.277c-34.251,0-62.116-27.865-62.116-62.117h30c0,17.709,14.407,32.117,32.116,32.117
	s32.116-14.408,32.116-32.117h30C253.894,198.411,226.028,226.277,191.777,226.277z"/>
<rect x="255.78" y="357.56" style="fill:#6FC8F1;" width="32" height="30"/>
<path style="fill:#FFF8D5;" d="M223.894,164.16c0,17.709-14.407,32.116-32.116,32.117v30c34.251,0,62.116-27.865,62.116-62.117
	H223.894z"/>
<g>
</g>
<g>
</g>
<g>
</g>
<g>
</g>
<g>
</g>
<g>
</g>
<g>
</g>
<g>
</g>
<g>
</g>
<g>
</g>
<g>
</g>
<g>
</g>
<g>
</g>
<g>
</g>
<g>
</g>
</svg>
